<svg xmlns="http://www.w3.org/2000/svg" width="203" height="218" viewBox="0 0 203 218"><path fill="#444E59" d="M165.957 182.283c-.519-10.448-.773-21.276-3.504-31.369-1.227-4.541-2.453-9.072-3.731-13.6-1.08-3.826-3.811-7.753-3.664-11.817l-8.16-19.382c-2.26 11.701-22.77 16.531-31.887 20.816-4.408 2.071-8.98 4.155-13.482 6.42-4.502-2.265-9.074-4.349-13.482-6.42-9.117-4.285-29.627-9.115-31.887-20.816l-8.16 19.382c.146 4.064-2.584 7.991-3.664 11.817-1.277 4.527-2.504 9.059-3.732 13.6-2.728 10.093-2.982 20.921-3.502 31.369-.412 8.277-.516 17.326.281 25.502.305 3.118.81 6.167 1.418 9.18l.131.681h50.908c1.371-6.101 4.096-12.352 10.516-12.921.406-.036.793-.041 1.174-.039.381-.002.768.003 1.172.039 6.422.569 9.146 6.82 10.518 12.921h50.908l.131-.681c.607-3.013 1.113-6.061 1.418-9.18.797-8.176.693-17.225.281-25.502z"/><path fill="#5A697A" d="M162.879 83.673c-4.346-6.924-7.889-13.905-11.127-21.414-2.299-5.334-5.277-11.861-9.002-16.254-5.289-6.238-12.721-7.012-20.061-9.053-7.184-1.998-12.627-2.975-20.336-2.584l-.824.037-.824-.037c-7.709-.391-13.152.586-20.336 2.584-7.34 2.041-14.771 2.814-20.061 9.053-3.725 4.393-6.703 10.92-9.002 16.254-3.238 7.509-6.781 14.49-11.127 21.414-5.012 7.979-9.797 15.797-10.219 25.487-.227 5.192 2.012 10.601 3.894 15.343 1.697 4.278 3.111 9.082 5.559 12.979 2.393 3.811 6.449 6.524 10.125 8.819 8.94 5.581 16.385 13.697 22.563 22.15 3.938 5.388 8.09 18.135 15.682 18.928 4.502.471 9.027.631 13.551.685v.007l.195-.003.195.003v-.007c4.523-.055 9.049-.215 13.551-.685 7.592-.793 11.744-13.54 15.682-18.928 6.178-8.453 13.623-16.569 22.563-22.15 3.676-2.295 7.732-5.009 10.125-8.819 2.447-3.897 3.861-8.701 5.559-12.979 1.883-4.742 4.121-10.15 3.894-15.343-.422-9.69-5.207-17.509-10.219-25.487zM69.078 27.812c-5.146-6.023-9.096-13.195-15.619-17.926-9.531-6.913-21.963-5.408-32.969-7.283-4.809-.819-9.461-1.83-14.303-2.449-6.121-.783-6.365 1.407-6.133 7.023.539 12.928 1.563 34.863 15.635 40.877 6.992 2.987 15.293-1.273 22.117-3.061 6.609-1.731 12.096-2.014 18.818-.947 2.375.376 4.029.707 5.953 2.326 1.676 1.408 2.826 4.568 5.127 5.004 2.897.549 8.914-2.928 11.588-4.164 2.389-1.105 5.406-2.065 7.471-3.323l1.699-2.72c-4.588-.709-7.234-3.978-10.896-6.358-3.266-2.119-5.877-3.943-8.488-6.999zM196.871.154c-4.842.619-9.496 1.63-14.303 2.449-11.006 1.875-23.438.37-32.969 7.283-6.523 4.731-10.473 11.902-15.619 17.926-2.611 3.056-5.223 4.88-8.488 6.999-3.662 2.38-6.309 5.649-10.896 6.358l1.699 2.72c2.064 1.258 5.082 2.218 7.471 3.323 2.674 1.236 8.691 4.713 11.588 4.164 2.301-.435 3.451-3.596 5.125-5.004 1.926-1.619 3.58-1.95 5.955-2.326 6.723-1.066 12.209-.784 18.818.947 6.822 1.787 15.125 6.048 22.117 3.061 14.072-6.014 15.096-27.949 15.635-40.877.232-5.616-.012-7.806-6.133-7.023z"/><path fill="#444E59" d="M35.871 14.748c-9.326-1.707-17.17-.827-26.42-4.647-3.426-1.413-6.385-2.941-9.443-4.518.008.5.023 1.024.047 1.595.539 12.928 1.563 34.863 15.635 40.877 6.992 2.987 15.293-1.273 22.117-3.061 6.609-1.731 12.096-2.014 18.818-.947 1.406.223 2.561.435 3.666.904-3.531-10.604-12.191-27.966-24.42-30.203zM167.246 14.748c9.328-1.707 17.172-.827 26.422-4.647 3.426-1.413 6.385-2.941 9.443-4.518-.008.5-.023 1.024-.047 1.595-.539 12.928-1.563 34.863-15.635 40.877-6.992 2.987-15.295-1.273-22.117-3.061-6.609-1.731-12.096-2.014-18.818-.947-1.406.223-2.561.435-3.666.904 3.531-10.604 12.191-27.966 24.418-30.203z"/><path fill="#93A1AF" d="M54.531 86.69c.281.481.596.952.94 1.401 4.527 5.943 15.254 7.519 16.209-2.131.846-8.571-9.24-14.912-16.273-9.154-3.133 2.565-2.824 6.533-.875 9.884z"/><path fill="#39150E" d="M57.19 82.322c-1.445 3.262-.338 6.521 1.918 8.918 5.066 2.936 11.822 2.291 12.572-5.279.207-2.111-.252-4.085-1.16-5.777-4.254-3.422-10.49-4.262-13.33 2.139z"/><path fill="#93A1AF" d="M148.527 86.69c-.281.481-.596.952-.94 1.401-4.527 5.943-15.254 7.519-16.209-2.131-.846-8.571 9.24-14.912 16.273-9.154 3.133 2.565 2.824 6.533.875 9.884z"/><path fill="#39150E" d="M145.867 82.322c1.447 3.262.34 6.521-1.918 8.918-5.064 2.936-11.82 2.291-12.57-5.279-.207-2.111.252-4.085 1.16-5.777 4.254-3.422 10.49-4.262 13.328 2.139z"/><path fill="#93A1AF" d="M119.272 114.351c-7.445-20.02-9.92-41.129-17.215-60.957l-.332-.867v-1.022l-.195.512-.195-.512v1.022l-.332.867c-7.295 19.828-9.77 40.938-17.215 60.957-3.756 10.098-10.646 23.852-4.844 33.928 3.223 5.594 7.484 10.594 11.467 15.709 3.394 4.357 6.033 6.354 10.924 6.481v.021l.195-.011.195.011v-.021c4.891-.127 7.529-2.124 10.922-6.481 3.984-5.115 8.246-10.115 11.469-15.709 5.803-10.076-1.09-23.83-4.844-33.928z"/></svg>